#!OML:ASF E:\emotionWalksFemale\Project 1\Capture day 1\Session 1\Female1.ASF
:FULLY-SPECIFIED
:DEGREES
1964
root 12.2417 15.2874 -37.5719 0.325337 -3.78229 360.743
lowerback 2.15637 -2.09311 0.383825
upperback -5.62596 -2.58323 3.46172
thorax -6.93228 -1.19289 3.61853
lowerneck -11.7708 -3.62657 -2.28602
upperneck 25.0302 -7.95749 11.923
head 10.5694 -2.57577 3.63673
rclavicle -6.81831e-014 2.22639e-014
rhumerus -41.3448 7.3807 -75.2725
rradius 39.7174
rwrist 16.2512
rhand -0.96852 -56.1299
rfingers 7.12502
rthumb -155.338 -624.561
lclavicle -6.81831e-014 2.22639e-014
lhumerus -53.1387 7.4715 78.1363
lradius 38.1372
lwrist -13.6458
lhand -1.10084 -31.8347
lfingers 7.12502
lthumb 24.5356 -3.38661
rfemur -5.218 15.366 18.6293
rtibia 28.0717
rfoot -27.3513 -32.6102
rtoes 5.10579
lfemur -5.95765 -20.012 -28.0028
ltibia 27.8723
lfoot -31.1414 21.7253
ltoes -13.7947
1965
root 12.2555 15.2879 -37.5652 0.178955 -3.55528 360.693
lowerback 2.62969 -2.1042 0.46415
upperback -5.59707 -2.58493 3.42396
thorax -7.18131 -1.19533 3.55677
lowerneck -12.1728 -3.66389 -2.39732
upperneck 24.9987 -8.0557 12.1759
head 10.665 -2.58854 3.73023
rclavicle -5.32743e-014 1.59028e-014
rhumerus -40.9106 6.29344 -74.612
rradius 38.6214
rwrist 14.7367
rhand -5.57847 -46.6424
rfingers 7.12502
rthumb -159.762 -615.608
lclavicle -5.32743e-014 1.59028e-014
lhumerus -52.674 7.29904 78.2987
lradius 38.1496
lwrist -13.5065
lhand -0.874178 -31.6317
lfingers 7.12502
lthumb 24.7528 -3.21326
rfemur -5.27692 14.3379 18.5409
rtibia 28.4579
rfoot -26.6324 -32.2578
rtoes 2.66132
lfemur -5.74612 -19.9415 -28.0431
ltibia 27.795
lfoot -30.9738 21.6516
ltoes -14.3643
1966
root 12.2712 15.2875 -37.5529 0.108242 -3.43331 360.74
lowerback 2.2627 -2.04902 0.313431
upperback -5.14493 -2.53766 3.45812
thorax -6.47971 -1.1752 3.63483
lowerneck -13.0667 -3.70649 -2.3561
upperneck 24.975 -8.1146 12.1227
head 10.8375 -2.58242 3.68445
rclavicle 2.18663e-014 2.38542e-014
rhumerus -40.1867 6.27276 -74.8015
rradius 40.193
rwrist 14.6829
rhand -2.58942 -52.6711
rfingers 7.12502
rthumb -156.892 -621.305
lclavicle 2.18663e-014 2.38542e-014
lhumerus -51.5592 7.34173 78.5826
lradius 38.6863
lwrist -11.8763
lhand 2.48507 -30.2374
lfingers 7.12502
lthumb 27.9684 -2.30094
rfemur -5.50861 13.077 18.2457
rtibia 28.9404
rfoot -26.0397 -31.4463
rtoes 0.54067
lfemur -5.61401 -19.7203 -28.1644
ltibia 27.6972
lfoot -30.834 21.5177
ltoes -15.226
1967
root 12.2882 15.2851 -37.5384 0.100416 -3.45821 360.803
lowerback 2.44345 -2.04365 0.257087
upperback -5.31175 -2.5263 3.44662
thorax -6.761 -1.16197 3.66976
lowerneck -12.7196 -3.70618 -2.47622
upperneck 24.9476 -8.08859 12.1606
head 10.761 -2.59243 3.72606
rclavicle 4.35338e-014 -3.33958e-014
rhumerus -40.6711 6.36619 -74.9621
rradius 41.5945
rwrist 14.3465
rhand -4.45895 -51.9618
rfingers 7.12502
rthumb -158.687 -620.81
lclavicle 4.35338e-014 -3.33958e-014
lhumerus -51.7711 7.2887 78.5987
lradius 39.1023
lwrist -11.3645
lhand 3.94694 -30.0256
lfingers 7.12502
lthumb 29.365 -2.32524
rfemur -5.9171 11.8109 17.8776
rtibia 29.5774
rfoot -25.4736 -30.4585
rtoes -1.70468
lfemur -5.51711 -19.4683 -28.3047
ltibia 27.5555
lfoot -30.7254 21.378
ltoes -15.4519
1968
root 12.3074 15.2829 -37.5263 0.0208776 -3.39094 360.884
lowerback 2.42348 -1.99429 0.175079
upperback -5.22896 -2.46888 3.4177
thorax -6.66211 -1.13194 3.67631
lowerneck -12.8591 -3.71273 -2.42691
upperneck 24.785 -8.08951 12.1713
head 10.7277 -2.58709 3.71487
rclavicle -1.37161e-014 1.11319e-014
rhumerus -40.8117 5.98206 -74.8329
rradius 41.8968
rwrist 11.8897
rhand -6.42138 -50.9625
rfingers 7.12502
rthumb -160.573 -620.012
lclavicle -1.37161e-014 1.11319e-014
lhumerus -51.4642 7.02998 78.9639
lradius 39.0554
lwrist -11.9388
lhand 3.17223 -30.3917
lfingers 7.12502
lthumb 28.6251 -2.56405
rfemur -6.32611 10.6053 17.5142
rtibia 30.429
rfoot -24.8644 -29.6283
rtoes -4.33887
lfemur -5.36818 -19.1166 -28.4688
ltibia 27.4151
lfoot -30.4361 21.1691
ltoes -15.4963
